<svg xmlns="http://www.w3.org/2000/svg" viewBox="0 0 48 48" width="40px" height="40px"><path fill="#f26322" d="M43.559,6.581c-0.021-0.264-0.064-0.566-0.286-0.71c-0.132-0.086-0.299-0.094-0.456-0.099 c-6.843-0.233-13.121,0.005-19.965-0.227c-1.432-0.049-2.871-0.097-4.298,0.01c-0.524,0.04-0.917,0.5-0.897,1.026 c0.051,1.349-0.216,2.694-0.3,3.957l19.862,20.792c1.853,0.172,4.377,0.114,6.231-0.04C43.438,22.844,44.215,14.801,43.559,6.581z"/><path fill="#f58420" d="M38.076,11.175c-0.653-0.671-1.738-0.563-2.666-0.44c-7.215,0.954-14.52-0.223-21.795-0.448 c-0.38-0.012-0.797-0.009-1.089,0.234c-0.275,0.228-0.363,0.609-0.407,0.963c-0.156,1.244,0.036,2.53,0.547,3.675l18.417,21.327 c1.518,0.028,3.428-0.029,4.946-0.001c0.675,0.012,1.495-0.058,1.794-0.663c0.114-0.23,0.124-0.496,0.131-0.752 c0.217-7.274,0.434-14.423,0.651-21.696C38.628,12.597,38.617,11.73,38.076,11.175z"/><path fill="#f3ad20" d="M24.007,15.458c-5.475-0.085-11.016-0.165-16.486,0.099c-0.526,0.025-1.068,0.057-1.543,0.285 c-0.872,0.418-1.332,1.417-1.421,2.38c-0.089,0.963,0.121,1.924,0.234,2.884c0.367,3.133,0.519,6.279,0.114,9.407 c-0.364,2.812-0.513,5.651-0.444,8.485c0.02,0.827,0.111,1.763,0.761,2.275c0.4,0.315,0.929,0.397,1.433,0.468 c6.257,0.884,10.841,1.184,17.153,1.478c1.449,0.068,4.415,0.43,5.748-0.141c0.384-0.164,0.763-0.392,0.973-0.753 c0.166-0.285,0.209-0.622,0.241-0.95c0.163-1.69,0.072-3.144,0.206-4.837c0.103-1.307,0.324-2.602,0.482-3.904 c0.62-5.076,0.305-10.214-0.01-15.318c-0.027-0.439-0.067-0.911-0.349-1.248c-0.334-0.4-0.903-0.491-1.422-0.547 C27.629,15.302,26.07,15.49,24.007,15.458z"/><path fill="#010101" d="M44.06,6.54C44.04,6.3,44,5.74,43.55,5.45c-0.26-0.16-0.53-0.17-0.72-0.18 c-3.42-0.11-6.76-0.11-9.99-0.11c-3.21,0-6.55,0-9.97-0.12c-1.42-0.04-2.89-0.1-4.35,0.02c-0.8,0.06-1.39,0.73-1.36,1.54 c0.03,0.83-0.07,1.69-0.16,2.52c-0.036,0.281-0.057,0.551-0.084,0.825c-1.095-0.066-2.194-0.124-3.285-0.157 c-0.361-0.009-0.967-0.029-1.426,0.351c-0.416,0.347-0.53,0.868-0.583,1.284c-0.148,1.182,0.009,2.376,0.422,3.491 c-1.521,0.028-3.042,0.073-4.547,0.146c-0.515,0.024-1.155,0.056-1.734,0.333c-0.947,0.453-1.584,1.494-1.703,2.785 c-0.072,0.785,0.037,1.554,0.143,2.298c0.033,0.23,0.066,0.46,0.093,0.69c0.427,3.64,0.464,6.591,0.115,9.284 c-0.366,2.828-0.517,5.708-0.448,8.563c0.016,0.631,0.049,1.943,0.952,2.654c0.517,0.407,1.157,0.497,1.672,0.57 c6.075,0.858,10.559,1.173,17.2,1.482c0.268,0.013,0.587,0.035,0.938,0.061c0.752,0.053,1.634,0.115,2.481,0.115 c0.977,0,1.91-0.083,2.55-0.357c0.371-0.159,0.899-0.432,1.208-0.96c0.217-0.372,0.271-0.774,0.307-1.154 c0.088-0.917,0.104-1.774,0.118-2.604c0.011-0.59,0.028-1.202,0.066-1.831c0.209,0.002,0.415,0.005,0.634,0.005 c0.483,0,0.985-0.004,1.488-0.008c0.848-0.008,1.695-0.015,2.443-0.001c0.483,0.007,1.77,0.033,2.253-0.942 c0.163-0.331,0.174-0.679,0.183-0.959l0.095-3.175c0.425,0.014,0.858,0.022,1.291,0.022c1.35,0,2.68-0.06,3.65-0.14 c0.26-0.03,0.46-0.24,0.46-0.5c0-3.02,0.09-6.02,0.19-8.93C44.31,16.95,44.48,11.84,44.06,6.54z M30.389,38.802 c-0.016,0.847-0.03,1.647-0.115,2.525c-0.026,0.281-0.06,0.55-0.174,0.745c-0.12,0.205-0.362,0.384-0.739,0.546 c-0.972,0.418-3.134,0.267-4.566,0.163c-0.36-0.025-0.688-0.048-0.961-0.061c-6.61-0.31-11.071-0.622-17.106-1.475 c-0.417-0.059-0.889-0.126-1.193-0.365c-0.47-0.37-0.553-1.129-0.571-1.894c-0.067-2.803,0.08-5.633,0.44-8.409 c0.358-2.778,0.322-5.806-0.114-9.53c-0.027-0.238-0.062-0.477-0.096-0.715c-0.103-0.718-0.198-1.396-0.137-2.064 c0.066-0.724,0.4-1.622,1.139-1.975c0.397-0.191,0.904-0.216,1.352-0.237c2.81-0.136,5.683-0.18,8.499-0.18 c2.743,0,5.432,0.042,7.954,0.081c0.742,0.014,1.422-0.005,2.081-0.021c1.165-0.028,2.262-0.056,3.548,0.082 c0.415,0.044,0.875,0.112,1.09,0.369c0.175,0.209,0.209,0.559,0.234,0.959c0.309,5.008,0.628,10.186,0.013,15.228 c-0.055,0.445-0.116,0.891-0.179,1.336c-0.117,0.845-0.238,1.718-0.307,2.589C30.415,37.308,30.401,38.066,30.389,38.802z M37.375,35.6c-0.136,0.272-0.591,0.399-1.338,0.385c-0.756-0.014-1.613-0.008-2.471,0.001c-0.699,0.006-1.384,0.009-2.029,0.003 c0.068-0.65,0.152-1.303,0.24-1.94c0.063-0.45,0.125-0.901,0.18-1.353c0.626-5.134,0.305-10.357-0.007-15.41 c-0.028-0.447-0.066-1.061-0.465-1.538c-0.493-0.59-1.313-0.677-1.751-0.723c-1.354-0.146-2.483-0.117-3.679-0.088 c-0.646,0.017-1.313,0.033-2.041,0.021c-3.424-0.053-7.153-0.108-10.914-0.061c-0.459-1.055-0.63-2.212-0.487-3.351 c0.027-0.215,0.081-0.517,0.23-0.641c0.153-0.126,0.457-0.129,0.755-0.119c2.238,0.069,4.521,0.231,6.729,0.389 c4.973,0.355,10.112,0.722,15.147,0.055c0.913-0.124,1.772-0.189,2.242,0.293c0.396,0.406,0.408,1.129,0.387,1.834l-0.65,21.695 C37.448,35.255,37.441,35.464,37.375,35.6z M43.14,22.33c-0.09,2.76-0.18,5.62-0.19,8.5c-1.226,0.089-2.862,0.132-4.371,0.079 l0.525-17.522c0.026-0.879-0.001-1.874-0.67-2.561c-0.857-0.884-2.203-0.705-3.09-0.588c-4.937,0.654-10.024,0.291-14.945-0.06 c-0.821-0.059-1.658-0.114-2.494-0.169c0.026-0.256,0.056-0.514,0.085-0.779c0.1-0.86,0.2-1.76,0.17-2.67 c-0.01-0.26,0.18-0.49,0.43-0.51C20,5.95,21.44,6,22.83,6.04c3.44,0.12,6.79,0.11,10.01,0.12c3.22,0,6.55,0,9.96,0.11 c0.06,0,0.17,0.01,0.19,0.01c0.02,0.02,0.05,0.09,0.07,0.34C43.48,11.87,43.31,16.95,43.14,22.33z"/><path fill="#73a1b2" d="M17.667,21.174c2.448-0.573,5.589,1.962,6.793,4.17c1.204,2.208,1.27,4.756-0.385,6.648 c-0.576,0.658-1.319,1.21-2.178,1.373c0.225-1.13,1.155-2.018,1.399-3.144c0.334-1.538-0.672-4.015-1.623-5.268 c-0.5-0.659-1.385-1.395-2.204-1.514C19.08,26.86,19.734,30.127,19.406,34c-0.299,1.188-0.918,1.898-1.865,2.675 c-0.454,0.373-0.976,0.68-1.551,0.8c-0.787,0.164-1.605-0.033-2.361-0.309c-0.393-0.144-0.781-0.31-1.126-0.549 c-1.323-0.916-2.252-1.593-1.739-3.118c0.563-1.672,1.53-2.067,3.109-2.067c1.375,0,3.36,1.272,3.545,1.098s0.083-3.152,0.08-3.406 C17.469,25.813,17.375,24.063,17.667,21.174z"/><path fill="#010101" d="M15.396,38.034c-0.74,0-1.435-0.215-1.937-0.397c-0.356-0.13-0.819-0.317-1.239-0.607 c-1.264-0.875-2.57-1.778-1.928-3.688c0.672-1.998,1.918-2.407,3.583-2.407c0.939,0,2.038,0.485,2.84,0.84 c0.097,0.043,0.201,0.089,0.3,0.131c0.019-0.401,0.025-1.148-0.01-2.537l-0.024-1.83c-0.033-2.406-0.056-3.997,0.189-6.413 c0.021-0.213,0.175-0.389,0.383-0.438c2.814-0.654,6.133,2.193,7.346,4.418c1.41,2.586,1.243,5.284-0.448,7.216 c-0.733,0.839-1.585,1.37-2.462,1.536c-0.158,0.029-0.331-0.021-0.448-0.14c-0.117-0.118-0.167-0.286-0.135-0.449 c0.13-0.653,0.451-1.208,0.761-1.745c0.275-0.478,0.536-0.928,0.641-1.407c0.282-1.302-0.581-3.606-1.533-4.861 c-0.332-0.437-0.854-0.905-1.366-1.153c-0.118,1.498-0.056,2.978,0.012,4.534c0.073,1.71,0.148,3.479-0.015,5.407 c-0.348,1.409-1.067,2.216-2.045,3.02c-0.579,0.476-1.173,0.779-1.766,0.903C15.859,38.014,15.625,38.034,15.396,38.034z M13.875,31.934c-1.363,0-2.145,0.267-2.636,1.726c-0.369,1.099,0.104,1.547,1.549,2.548c0.327,0.226,0.713,0.381,1.014,0.49 c0.542,0.197,1.347,0.44,2.088,0.289c0.433-0.091,0.882-0.325,1.335-0.698c0.87-0.715,1.427-1.338,1.696-2.41 c0.145-1.785,0.07-3.521-0.001-5.2c-0.078-1.806-0.15-3.512,0.052-5.296c0.016-0.134,0.085-0.257,0.191-0.339 c0.106-0.083,0.241-0.118,0.377-0.1c1.024,0.147,2.003,1.012,2.53,1.707c0.924,1.217,2.106,3.863,1.713,5.677 c-0.137,0.632-0.449,1.173-0.751,1.695c-0.087,0.151-0.173,0.3-0.253,0.447c0.377-0.241,0.688-0.544,0.919-0.808 c1.402-1.604,1.523-3.876,0.321-6.079c-1.006-1.847-3.725-4.178-5.892-3.979c-0.199,2.153-0.179,3.676-0.147,5.919l0.024,1.818 c0.081,3.249-0.041,3.364-0.242,3.554c-0.313,0.294-0.67,0.138-1.452-0.207C15.631,32.388,14.604,31.934,13.875,31.934z M17.42,32.531h0.01H17.42z"/></svg>