<svg xmlns="http://www.w3.org/2000/svg" viewBox="0 0 100 100" width="48px" height="48px"><path fill="#a3a3cd" d="M65.898,17.575H23.871c-3.229,0-5.871,2.642-5.871,5.871v52.258c0,3.229,2.642,5.871,5.871,5.871h52.258c3.229,0,5.871-2.642,5.871-5.871V33.677L65.898,17.575z"/><path fill="#1f212b" d="M76.129,82.575H23.871c-3.789,0-6.871-3.082-6.871-6.871V23.446c0-3.789,3.083-6.871,6.871-6.871h42.027c0.265,0,0.52,0.105,0.707,0.293L82.707,32.97C82.895,33.158,83,33.412,83,33.677v42.026C83,79.493,79.917,82.575,76.129,82.575z M23.871,18.575c-2.686,0-4.871,2.186-4.871,4.871v52.258c0,2.686,2.185,4.871,4.871,4.871h52.258c2.686,0,4.871-2.186,4.871-4.871V34.091L65.484,18.575H23.871z"/><path fill="#fef6aa" d="M40.5,18.075v10.512c0,1.368,1.119,2.488,2.488,2.488h19.025c1.368,0,2.487-1.119,2.487-2.487V18.075H40.5z"/><path fill="#1f212b" d="M62.013,31.575H42.988c-1.647,0-2.988-1.34-2.988-2.987V18.075c0-0.276,0.224-0.5,0.5-0.5h24c0.276,0,0.5,0.224,0.5,0.5v10.513C65,30.235,63.66,31.575,62.013,31.575z M41,18.575v10.013c0,1.096,0.892,1.987,1.988,1.987h19.025c1.096,0,1.987-0.892,1.987-1.987V18.575H41z"/><path fill="#fefdef" d="M75.5,81.075V43.245c0-2.844-2.218-5.171-4.928-5.171H29.428c-2.71,0-4.928,2.327-4.928,5.171v37.829H75.5z"/><path fill="#1f212b" d="M75.5,81.575h-51c-0.276,0-0.5-0.224-0.5-0.5V43.246c0-3.127,2.435-5.671,5.428-5.671h41.144c2.993,0,5.428,2.544,5.428,5.671v37.829C76,81.351,75.776,81.575,75.5,81.575z M25,80.575h50V43.246c0-2.575-1.986-4.671-4.428-4.671H29.428c-2.442,0-4.428,2.096-4.428,4.671V80.575z"/><path fill="#a3a3cd" d="M57.5 20.075H60.5V29.075H57.5z"/><path fill="#1f212b" d="M60.5 29.575h-3c-.276 0-.5-.224-.5-.5v-9c0-.276.224-.5.5-.5h3c.276 0 .5.224.5.5v9C61 29.351 60.776 29.575 60.5 29.575zM58 28.575h2v-8h-2V28.575zM71.5 46.575h-11c-.276 0-.5-.224-.5-.5s.224-.5.5-.5h11c.276 0 .5.224.5.5S71.776 46.575 71.5 46.575zM56.5 46.575h-28c-.276 0-.5-.224-.5-.5s.224-.5.5-.5h28c.276 0 .5.224.5.5S56.776 46.575 56.5 46.575zM71.5 53.575h-32c-.276 0-.5-.224-.5-.5s.224-.5.5-.5h32c.276 0 .5.224.5.5S71.776 53.575 71.5 53.575zM35.5 53.575h-7c-.276 0-.5-.224-.5-.5s.224-.5.5-.5h7c.276 0 .5.224.5.5S35.776 53.575 35.5 53.575zM71.5 60.575h-16c-.276 0-.5-.224-.5-.5s.224-.5.5-.5h16c.276 0 .5.224.5.5S71.776 60.575 71.5 60.575zM48.5 60.575h-20c-.276 0-.5-.224-.5-.5s.224-.5.5-.5h20c.276 0 .5.224.5.5S48.776 60.575 48.5 60.575zM71.5 66.575h-32c-.276 0-.5-.224-.5-.5s.224-.5.5-.5h32c.276 0 .5.224.5.5S71.776 66.575 71.5 66.575zM36.5 66.575h-8c-.276 0-.5-.224-.5-.5s.224-.5.5-.5h8c.276 0 .5.224.5.5S36.776 66.575 36.5 66.575z"/></svg>