<svg xmlns="http://www.w3.org/2000/svg" viewBox="0 0 40 40" width="24px" height="24px"><path fill="#c2e8ff" d="M17.5,38.5V21.657c0-1.736,0.677-3.368,1.904-4.597L32.086,4.379L29.207,1.5H38.5v9.293 l-2.879-2.879L22.939,20.596c-0.284,0.285-0.439,0.662-0.439,1.062V38.5H17.5z"/><path fill="#4e7ab5" d="M38,2v7.586l-1.672-1.672l-0.707-0.707l-0.707,0.707l-12.33,12.33 C22.207,20.622,22,21.124,22,21.657V38h-4V21.657c0-1.603,0.624-3.109,1.758-4.243L32.086,5.086l0.707-0.707l-0.707-0.707 L30.414,2H38 M39,1H28l3.379,3.379L19.051,16.707C17.729,18.029,17,19.787,17,21.657V39h6V21.657 c0-0.268,0.104-0.519,0.293-0.708L35.621,8.621L39,12V1L39,1z"/><g><path fill="#8bb7f0" d="M17.5,38.5V21.657c0-0.399-0.155-0.776-0.438-1.061L4.379,7.914L1.5,10.793V1.5h9.293L7.914,4.379 l12.682,12.682c1.228,1.229,1.904,2.86,1.904,4.597V38.5H17.5z"/><path fill="#4e7ab5" d="M9.586,2L7.914,3.672L7.207,4.379l0.707,0.707l12.328,12.328C21.376,18.548,22,20.055,22,21.657V38 h-4V21.657c0-0.533-0.207-1.035-0.586-1.415L5.086,7.914L4.379,7.207L3.672,7.914L2,9.586V2H9.586 M12,1H1v11l3.379-3.379 l12.328,12.328C16.895,21.139,17,21.39,17,21.657V39h6V21.657c0-1.87-0.729-3.628-2.051-4.95L8.621,4.379L12,1L12,1z"/></g></svg>